#!OML:ASF F:\VICON\USERDATA\INSTALL\rory3\rory3.ASF
:FULLY-SPECIFIED
:DEGREES
2287
root -1.93088 18.1609 6.0512 5.5075 -50.6344 21.1728
lowerback 15.2581 1.13335 2.46486
upperback 6.81473 1.73312 8.25381
thorax -1.48665 0.65988 7.09918
lowerneck -8.44862 -12.5394 -9.6266
upperneck 25.8918 -19.0792 10.0365
head 11.7876 -8.49055 2.60682
rclavicle 6.36111e-014 -2.54444e-014
rhumerus 13.4377 -13.1983 -85.2765
rradius 38.5246
rwrist -44.7614
rhand -32.0578 -26.4311
rfingers 7.12502
rthumb -5.30456 -56.3447
lclavicle 6.36111e-014 -2.54444e-014
lhumerus -13.0603 -46.0753 96.7677
lradius 59.8699
lwrist 37.502
lhand -16.8344 58.7554
lfingers 7.12502
lthumb 9.39512 -1351.47
rfemur -40.7918 -9.03281 12.8319
rtibia 32.1304
rfoot -14.0811 -6.68879
rtoes 22.7784
lfemur -18.1624 -9.31994 -20.8137
ltibia 30.1241
lfoot 9.92285 -1.42701
ltoes -7.25337
2288
root -1.92812 18.1554 6.05325 5.97814 -50.7728 20.862
lowerback 15.0769 1.05348 2.60453
upperback 6.74332 1.64186 8.04227
thorax -1.44799 0.623464 6.80001
lowerneck -8.55634 -12.4675 -9.08067
upperneck 25.9676 -19.051 9.93746
head 11.7622 -8.4354 2.4907
rclavicle 2.22639e-014 -1.59028e-014
rhumerus 14.2372 -15.0605 -84.8846
rradius 38.7679
rwrist -45.1975
rhand -32.8719 -25.675
rfingers 7.12502
rthumb -6.09056 -55.5674
lclavicle 2.22639e-014 -1.59028e-014
lhumerus -10.9719 -47.794 95.8178
lradius 60.4738
lwrist 36.6288
lhand -17.1603 58.5416
lfingers 7.12502
lthumb 9.08071 -1351.67
rfemur -41.1399 -9.52852 13.3907
rtibia 32.0656
rfoot -13.7054 -6.27158
rtoes 21.9706
lfemur -18.3768 -9.23784 -20.7981
ltibia 30.3321
lfoot 9.44374 -0.564499
ltoes -6.82705
2289
root -1.9257 18.1494 6.05744 6.41274 -50.9886 20.5088
lowerback 14.9696 0.93142 2.67748
upperback 6.63949 1.49505 7.93339
thorax -1.48238 0.556493 6.66212
lowerneck -8.54552 -12.3186 -8.8922
upperneck 26.1426 -18.8893 9.87439
head 11.7809 -8.35299 2.46883
rclavicle 1.24042e-013 -6.99722e-014
rhumerus 14.8373 -16.3982 -84.235
rradius 39.0306
rwrist -45.4461
rhand -33.6757 -25.2982
rfingers 7.12502
rthumb -6.86653 -55.1669
lclavicle 1.24042e-013 -6.99722e-014
lhumerus -9.09894 -49.0255 95.1157
lradius 61.1749
lwrist 36.3738
lhand -17.4542 58.1357
lfingers 7.12502
lthumb 8.79706 -1352.07
rfemur -41.4163 -9.90563 13.9552
rtibia 32.0087
rfoot -13.4284 -5.87192
rtoes 21.1896
lfemur -18.4849 -9.06429 -20.7632
ltibia 30.5209
lfoot 8.96394 0.350107
ltoes -6.60265
2290
root -1.92491 18.146 6.05716 6.77385 -51.2549 20.178
lowerback 14.9485 0.671864 2.44567
upperback 6.49758 1.13981 8.08179
thorax -1.59348 0.376256 7.01885
lowerneck -8.2159 -11.9427 -9.6492
upperneck 26.2427 -18.3026 10.0046
head 11.7822 -8.16951 2.74687
rclavicle -1.27222e-014 7.95139e-014
rhumerus 15.4745 -16.9147 -83.315
rradius 39.0503
rwrist -45.2386
rhand -33.9075 -25.2082
rfingers 7.12502
rthumb -7.09027 -55.0694
lclavicle -1.27222e-014 7.95139e-014
lhumerus -7.45695 -49.1378 94.835
lradius 61.8439
lwrist 36.3563
lhand -16.49 57.3539
lfingers 7.12502
lthumb 9.72741 -1352.89
rfemur -41.6305 -9.97742 14.362
rtibia 32.0182
rfoot -13.2874 -5.60246
rtoes 21.3407
lfemur -18.4945 -8.81073 -20.7448
ltibia 30.6385
lfoot 8.47033 1.22117
ltoes -7.64003
2291
root -1.92215 18.1365 6.05589 7.07776 -51.5252 19.9211
lowerback 14.9266 0.541116 2.26166
upperback 6.43767 0.949209 8.03051
thorax -1.62801 0.281399 7.10098
lowerneck -8.1967 -11.7067 -9.74921
upperneck 26.35 -17.9762 10.0265
head 11.7934 -8.03605 2.826
rclavicle 2.22639e-014 -3.18055e-014
rhumerus 16.5026 -18.5 -83.0839
rradius 38.8774
rwrist -44.4851
rhand -33.5339 -24.7931
rfingers 7.12502
rthumb -6.72962 -54.6662
lclavicle 2.22639e-014 -3.18055e-014
lhumerus -5.48856 -49.6027 94.0107
lradius 62.4285
lwrist 35.9271
lhand -14.7773 56.2664
lfingers 7.12502
lthumb 11.3796 -1354.06
rfemur -41.8879 -10.0922 14.7673
rtibia 32.0515
rfoot -13.0551 -5.35456
rtoes 21.3046
lfemur -18.4474 -8.50252 -20.8148
ltibia 30.6917
lfoot 7.99805 2.0742
ltoes -8.87368
2292
root -1.91691 18.1222 6.05955 7.26864 -51.8365 19.8208
lowerback 14.8704 0.323533 1.94665
upperback 6.47084 0.614568 7.92444
thorax -1.52933 0.110679 7.22203
lowerneck -8.57596 -11.4161 -9.60757
upperneck 26.6084 -17.5444 9.83577
head 11.8812 -7.83519 2.78502
rclavicle -1.90833e-014 -5.08889e-014
rhumerus 17.7288 -19.7048 -83.0557
rradius 38.7
rwrist -43.9774
rhand -33.2623 -24.185
rfingers 7.12502
rthumb -6.46743 -54.0662
lclavicle -1.90833e-014 -5.08889e-014
lhumerus -3.35717 -49.6192 92.9028
lradius 62.9747
lwrist 35.2532
lhand -16.4246 55.6694
lfingers 7.12502
lthumb 9.79054 -1354.58
rfemur -42.1845 -10.2456 15.0652
rtibia 32.0997
rfoot -12.7739 -5.02734
rtoes 21.0523
lfemur -18.3613 -8.20064 -21.0247
ltibia 30.7123
lfoot 7.51584 3.01571
ltoes -9.11746
2293
root -1.9146 18.1135 6.06714 7.55107 -52.1964 19.5484
lowerback 14.8426 0.097186 1.73552
upperback 6.49332 0.28424 7.87688
thorax -1.4541 -0.0582859 7.34633
lowerneck -8.80674 -11.1086 -9.63855
upperneck 26.7818 -17.0868 9.75396
head 11.9341 -7.63752 2.82319
rclavicle -4.77083e-014 -2.22639e-014
rhumerus 18.7586 -20.4984 -82.7723
rradius 38.6597
rwrist -43.6981
rhand -33.3245 -24.059
rfingers 7.12502
rthumb -6.52752 -53.9384
lclavicle -4.77083e-014 -2.22639e-014
lhumerus -1.44914 -49.714 92.0135
lradius 63.6679
lwrist 35.7117
lhand -14.4653 54.753
lfingers 7.12502
lthumb 11.6804 -1355.59
rfemur -42.3992 -10.2923 15.4203
rtibia 32.1424
rfoot -12.538 -4.65221
rtoes 20.9638
lfemur -18.2354 -7.96652 -21.1202
ltibia 30.7193
lfoot 7.08748 4.08271
ltoes -9.24285
